<?xml version="1.0" standalone="no"?><!DOCTYPE svg PUBLIC "-//W3C//DTD SVG 1.1//EN" "http://www.w3.org/Graphics/SVG/1.1/DTD/svg11.dtd"><svg t="1746688236125" class="icon" viewBox="0 0 1024 1024" version="1.1" xmlns="http://www.w3.org/2000/svg" p-id="1513" width="64" height="64" xmlns:xlink="http://www.w3.org/1999/xlink"><path d="M544 192m-149.344 0a149.344 149.344 0 1 0 298.688 0 149.344 149.344 0 1 0-298.688 0Z" fill="#7B83EB" p-id="1514"></path><path d="M533.344 224H398.08l0.672 2.976 0.064 0.256 0.704 2.752A149.472 149.472 0 0 0 576 337.888V266.656A42.784 42.784 0 0 0 533.344 224z" opacity=".1" p-id="1515"></path><path d="M501.344 256h-92.288A149.344 149.344 0 0 0 544 341.344V298.656A42.784 42.784 0 0 0 501.344 256z" opacity=".2" p-id="1516"></path><path d="M880 240m-112 0a112 112 0 1 0 224 0 112 112 0 1 0-224 0Z" fill="#5059C9" p-id="1517"></path><path d="M976 384h-251.552a20.48 20.48 0 0 0-20.48 20.48v259.52a163.872 163.872 0 0 0 126.944 162.688A160.192 160.192 0 0 0 1024 670.016V432a48 48 0 0 0-48-48z" fill="#5059C9" p-id="1518"></path><path d="M800 432V736a255.84 255.84 0 0 1-477.44 128 229.536 229.536 0 0 1-16-32 267.744 267.744 0 0 1-10.56-32A263.68 263.68 0 0 1 288 736v-304a47.936 47.936 0 0 1 48-48h416a47.936 47.936 0 0 1 48 48z" fill="#7B83EB" p-id="1519"></path><path d="M501.344 256h-92.288A149.344 149.344 0 0 0 544 341.344V298.656A42.784 42.784 0 0 0 501.344 256z" opacity=".2" p-id="1520"></path><path d="M576 384v405.44a42.24 42.24 0 0 1-33.28 41.28 30.912 30.912 0 0 1-9.28 1.28H306.56a267.744 267.744 0 0 1-10.56-32A263.68 263.68 0 0 1 288 736v-304a47.936 47.936 0 0 1 48-48z" opacity=".1" p-id="1521"></path><path d="M544 384v437.44a30.944 30.944 0 0 1-1.28 9.28A42.24 42.24 0 0 1 501.44 864h-178.88a229.536 229.536 0 0 1-16-32 267.744 267.744 0 0 1-10.56-32A263.68 263.68 0 0 1 288 736v-304a47.936 47.936 0 0 1 48-48z" opacity=".2" p-id="1522"></path><path d="M544 384v373.44A42.752 42.752 0 0 1 501.44 800H296A263.68 263.68 0 0 1 288 736v-304a47.936 47.936 0 0 1 48-48z" opacity=".2" p-id="1523"></path><path d="M336 384A47.936 47.936 0 0 0 288 432V736a263.68 263.68 0 0 0 8 64h173.44A42.752 42.752 0 0 0 512 757.44V384z" opacity=".2" p-id="1524"></path><path d="M42.656 256h426.688A42.656 42.656 0 0 1 512 298.656v426.688A42.656 42.656 0 0 1 469.344 768H42.656A42.656 42.656 0 0 1 0 725.344V298.656A42.656 42.656 0 0 1 42.656 256z" fill="#4B53BC" p-id="1525"></path><path d="M383.36 415.2H287.68v256.64H224.896v-256.64H128.64v-63.04h254.72z" fill="#FFFFFF" p-id="1526"></path></svg>