<svg xmlns="http://www.w3.org/2000/svg" viewBox="0 0 488.3 121.9"><style>.st0{fill:#004b8b}.st1{fill:#00a9e8}.st2{display:none}.st3,.st4,.st5,.st6{display:inline;fill:none;stroke:#e6007e;stroke-width:.75;stroke-dasharray:3.4864,2.353}.st4,.st5,.st6{stroke-width:.5;stroke-dasharray:1,1}.st5,.st6{stroke-width:.75;stroke-dasharray:3.076,2.076}.st6{stroke-dasharray:3.8324,2.5865}</style><g id="Ebene_1"><path class="st0" d="M189 111.8h-1.9l-7.2-22.4h2.5l5.7 18.1 5.7-18.1h2.5l-7.3 22.4zM199.4 104.6c0 3.4 1.6 5.4 4.5 5.4 1.8 0 2.8-.5 4-1.8l1.5 1.4c-1.5 1.6-3 2.4-5.5 2.4-4 0-6.6-2.5-6.6-7.9 0-5 2.4-7.9 6.2-7.9 3.9 0 6.2 2.9 6.2 7.5v1h-10.3zm7.5-4.3c-.6-1.4-1.9-2.3-3.5-2.3s-3 .9-3.5 2.3c-.3.9-.4 1.3-.5 2.6h8c-.1-1.2-.2-1.7-.5-2.6zM224 111.8v-9.5c0-2.7-1.4-4.1-3.7-4.1s-3.8 1.4-3.8 4.1v9.5h-2.2V96.3h2.2V98c1.1-1.3 2.6-1.9 4.3-1.9 1.6 0 3 .5 3.9 1.4 1.1 1.1 1.6 2.5 1.6 4.3v9.9H224zM235.9 111.8c-2.6 0-3.9-1.9-3.9-4.2v-9.5h-1.9v-1.7h1.9v-4.8h2.2v4.8h3.2v1.7h-3.2v9.4c0 1.4.6 2.3 2.1 2.3h1.2v2h-1.6zM241.7 91.9v-2.5h2.5v2.5h-2.5zm.2 19.9V96.3h2.2v15.5h-2.2zM253.4 111.8c-2.6 0-3.8-1.8-3.8-4.1V89.4h2.2v18.2c0 1.5.5 2.3 2 2.3h1.2v2h-1.6zM267.4 111.8v-1.5c-1.2 1.3-2.3 1.7-4.4 1.7-2.1 0-3.3-.4-4.3-1.4-.7-.8-1.1-1.9-1.1-3.1 0-2.7 1.8-4.5 5.2-4.5h4.6v-1.5c0-2.3-1.1-3.4-3.9-3.4-1.9 0-2.9.5-3.8 1.8l-1.5-1.4c1.4-1.8 2.9-2.3 5.4-2.3 4.1 0 6.1 1.8 6.1 5.2v10.5h-2.3zm0-7.2h-4.3c-2.3 0-3.4.9-3.4 2.7 0 1.8 1.1 2.6 3.5 2.6 1.3 0 2.4-.1 3.4-1 .5-.5.8-1.4.8-2.7v-1.6zM279.3 111.8c-2.6 0-3.9-1.9-3.9-4.2v-9.5h-1.9v-1.7h1.9v-4.8h2.2v4.8h3.2v1.7h-3.2v9.4c0 1.4.6 2.3 2.1 2.3h1.2v2h-1.6zM285.1 91.9v-2.5h2.5v2.5h-2.5zm.2 19.9V96.3h2.2v15.5h-2.2zM302.8 110.2c-1 1.1-2.5 1.8-4.3 1.8s-3.3-.7-4.3-1.8c-1.5-1.6-1.8-3.8-1.8-6.2 0-2.4.3-4.6 1.8-6.2 1-1.1 2.5-1.8 4.3-1.8s3.3.7 4.3 1.8c1.5 1.6 1.8 3.8 1.8 6.2 0 2.4-.3 4.6-1.8 6.2zm-1.6-11c-.7-.7-1.7-1.1-2.8-1.1s-2 .4-2.7 1.1c-1.1 1.1-1.2 3.1-1.2 4.8s.1 3.7 1.2 4.8c.7.7 1.7 1.1 2.7 1.1s2.1-.4 2.8-1.1c1.1-1.1 1.2-3.1 1.2-4.8s-.1-3.6-1.2-4.8zM319.1 111.8v-9.5c0-2.7-1.4-4.1-3.7-4.1-2.3 0-3.8 1.4-3.8 4.1v9.5h-2.2V96.3h2.2V98c1.1-1.3 2.6-1.9 4.3-1.9 1.6 0 3 .5 3.9 1.4 1.1 1.1 1.6 2.5 1.6 4.3v9.9h-2.3zM341.2 91.5v20.3h-2.3V91.5h-6.3v-2.1h15v2.1h-6.4zM350.3 104.6c0 3.4 1.6 5.4 4.5 5.4 1.8 0 2.8-.5 4-1.8l1.5 1.4c-1.5 1.6-3 2.4-5.5 2.4-4 0-6.6-2.5-6.6-7.9 0-5 2.4-7.9 6.2-7.9 3.9 0 6.2 2.9 6.2 7.5v1h-10.3zm7.6-4.3c-.6-1.4-1.9-2.3-3.5-2.3s-3 .9-3.5 2.3c-.3.9-.4 1.3-.5 2.6h8c-.1-1.2-.2-1.7-.5-2.6zM371.1 112c-3.8 0-6.7-2.6-6.7-7.9 0-5.3 2.9-7.9 6.7-7.9 2.1 0 3.4.6 5 2.3l-1.5 1.4c-1.1-1.3-2-1.7-3.5-1.7s-2.7.6-3.5 1.8c-.7 1-1 2.2-1 4.2s.3 3.1 1 4.2c.8 1.2 2 1.8 3.5 1.8 1.4 0 2.3-.5 3.5-1.8l1.5 1.5c-1.5 1.5-2.9 2.1-5 2.1zM390.1 111.8v-9.6c0-2.7-1.4-4.1-3.7-4.1-2.3 0-3.8 1.4-3.8 4.1v9.6h-2.2V89.4h2.2V98c1.1-1.3 2.6-1.9 4.3-1.9 3.4 0 5.5 2.2 5.5 5.7v9.9h-2.3zM407.4 111.8v-9.5c0-2.7-1.4-4.1-3.7-4.1-2.3 0-3.8 1.4-3.8 4.1v9.5h-2.2V96.3h2.2V98c1.1-1.3 2.6-1.9 4.3-1.9 1.6 0 3 .5 3.9 1.4 1.1 1.1 1.6 2.5 1.6 4.3v9.9h-2.3zM424.7 110.2c-1 1.1-2.5 1.8-4.3 1.8s-3.3-.7-4.3-1.8c-1.5-1.6-1.8-3.8-1.8-6.2 0-2.4.3-4.6 1.8-6.2 1-1.1 2.5-1.8 4.3-1.8s3.3.7 4.3 1.8c1.5 1.6 1.8 3.8 1.8 6.2.1 2.4-.2 4.6-1.8 6.2zm-1.5-11c-.7-.7-1.7-1.1-2.8-1.1-1.1 0-2 .4-2.7 1.1-1.1 1.1-1.2 3.1-1.2 4.8s.1 3.7 1.2 4.8c.7.7 1.7 1.1 2.7 1.1 1.1 0 2.1-.4 2.8-1.1 1.1-1.1 1.2-3.1 1.2-4.8s-.1-3.6-1.2-4.8zM435.1 111.8c-2.6 0-3.8-1.8-3.8-4.1V89.4h2.2v18.2c0 1.5.5 2.3 2 2.3h1.2v2h-1.6zM449.6 110.2c-1 1.1-2.5 1.8-4.3 1.8s-3.3-.7-4.3-1.8c-1.5-1.6-1.8-3.8-1.8-6.2 0-2.4.3-4.6 1.8-6.2 1-1.1 2.5-1.8 4.3-1.8s3.3.7 4.3 1.8c1.5 1.6 1.8 3.8 1.8 6.2.1 2.4-.3 4.6-1.8 6.2zm-1.6-11c-.7-.7-1.7-1.1-2.8-1.1s-2 .4-2.7 1.1c-1.1 1.1-1.2 3.1-1.2 4.8s.1 3.7 1.2 4.8c.7.7 1.7 1.1 2.7 1.1s2.1-.4 2.8-1.1c1.1-1.1 1.2-3.1 1.2-4.8s-.1-3.6-1.2-4.8zM461.1 118.9c-2.3 0-3.5-.6-5.1-2.1l1.4-1.4c1.1 1 1.9 1.5 3.6 1.5 2.9 0 4.2-2.1 4.2-4.8v-2.4c-1.2 1.6-2.6 2-4.3 2-1.5 0-2.9-.6-3.7-1.4-1.5-1.5-1.8-3.9-1.8-6.5 0-2.5.3-4.9 1.8-6.5.8-.8 2.2-1.4 3.7-1.4 1.7 0 3 .4 4.3 2v-1.8h2.2v16c0 4-2.4 6.8-6.3 6.8zm.3-20.8c-3.3 0-3.8 2.9-3.8 5.8s.5 5.8 3.8 5.8 3.8-2.9 3.8-5.8-.5-5.8-3.8-5.8zM476.7 115.5c-.3.9-.6 1.4-1.1 1.8-.8.8-1.9 1.1-3 1.1h-1v-2h.7c1.5 0 2-.5 2.5-1.9l1.1-3-5.5-15.2h2.4l4.2 12.4 4.1-12.4h2.4l-6.8 19.2z"/><g><path class="st1" d="M178 36.3c0-11.2.7-15.4 1.8-18.6 3.1-9.6 10.3-14.5 20.5-14.5S217 8.4 220 15.1c.2.5.2.9-.4 1.2l-3 1.5c-.5.2-.9.1-1.2-.4-3.1-5.9-7.8-9.2-15.3-9.2-7.8 0-13.1 3.8-15.4 10.9-.8 2.5-1.5 6.4-1.5 17.1s.6 14.7 1.5 17.1c2.3 7.1 7.6 10.9 15.4 10.9 7.6 0 13.1-3.7 15.4-10.7.8-2.5 1.5-6.1 1.5-12.3 0-.4-.2-.6-.6-.6h-14.3c-.6 0-.9-.4-.9-.9v-3.1c0-.6.4-.9.9-.9h19.2c.6 0 .9.4.9.9v3.9c0 6.4-.7 11.3-1.7 14.3-3 9.6-10.3 14.6-20.4 14.6-10.3 0-17.5-4.9-20.5-14.5-.8-3.2-1.6-7.4-1.6-18.6zM274.4 68.5c-.6 0-.8-.2-1.1-.9L260 39.7H242.9c-.4 0-.6.2-.6.6v27.2c0 .6-.4.9-.9.9H238c-.6 0-.9-.4-.9-.9V5.1c0-.6.4-.9.9-.9h21.1c11.8 0 19.2 6.8 19.2 17.8 0 8.9-4.8 15-12.9 17l13.7 28.5c.4.6.1 1-.5 1h-4.2zM273 21.9c0-8-5-12.7-14-12.7h-16.1c-.4 0-.6.2-.6.6V34c0 .4.2.6.6.6H259c9 0 14-4.5 14-12.7zM293.1 55c-1.1-3.4-1.9-7.6-1.9-18.6s.7-15.2 1.9-18.6c3.1-9.5 10.1-14.5 20.4-14.5 10.2 0 17.2 5 20.3 14.5 1.1 3.4 1.9 7.6 1.9 18.6s-.7 15.2-1.9 18.6c-3.1 9.5-10.1 14.5-20.3 14.5-10.3-.1-17.4-5.1-20.4-14.5zm35.5-35.8c-2.3-7.1-7.4-10.9-15.2-10.9-7.9 0-13 3.8-15.3 10.9-.8 2.6-1.6 6.7-1.6 17.1s.7 14.6 1.6 17.1c2.3 7.1 7.4 10.9 15.3 10.9 7.8 0 12.9-3.8 15.2-10.9.8-2.6 1.6-6.7 1.6-17.1s-.7-14.5-1.6-17.1zM354.9 46.3c0 12.1 6 18 16 18 10.1 0 16.1-5.9 16.1-18V5.1c0-.6.4-.9.9-.9h3.4c.6 0 .9.4.9.9v41.1c0 15.7-8.3 23.2-21.4 23.2-13 0-21.3-7.5-21.3-23.2V5.1c0-.6.4-.9.9-.9h3.4c.6 0 .9.4.9.9v41.2zM410 68.5c-.6 0-.9-.4-.9-.9V5.1c0-.6.4-.9.9-.9h21c12 0 19.3 7 19.3 18.3S443 40.6 431 40.6h-16.1c-.4 0-.6.2-.6.6v26.4c0 .6-.4.9-.9.9H410zm35.1-46.1c0-8.2-5-13.1-14.3-13.1h-15.9c-.4 0-.6.2-.6.6V35c0 .4.2.6.6.6h15.9c9.3-.1 14.3-5 14.3-13.2z"/></g><path class="st0" d="M73.2 68.5c-.6 0-1-.3-1.2-.9L52 5.2c-.2-.6.2-1 .8-1H68c.6 0 1 .3 1.2.9 0 0 5.2 18.1 6.8 23.6 3.3 11.2 4.4 19.8 4.4 19.8h.3S82 39.9 84.9 29c1.5-5.7 6.7-23.8 6.7-23.8.2-.7.6-.9 1.2-.9h15.1c.6 0 .9.5.7 1L88.4 67.5c-.2.7-.6.9-1.2.9h-14zM162.2 32.3h-20.1c-.5 0-1 .3-1.1.8l-3.6 11c-.1.4.2.8.6.8h8.5c.3 0 .6.3.6.6 0 1.7-.2 3-.6 4.2-1 3.3-4.3 5.1-8.3 5.1-4.5 0-7.4-2.1-8.6-5.7-.6-2.2-.9-5.1-.9-12.8s.2-10.5.9-12.8c1.1-3.6 3.9-5.7 8.1-5.7 4.4 0 6.9 1.7 9 5.2.3.5.8.7 1.4.4l12-5.2c.6-.3.7-.9.5-1.5C157.1 8.5 149.3 3 137.8 3c-11.2 0-20.4 5.3-23.7 15.8-1.5 4.9-1.9 8.7-1.9 17.5s.4 12.6 1.9 17.5c3.3 10.5 12.5 15.8 23.7 15.8 11.5 0 20.4-5.8 23.7-16.5 1.3-4 1.7-8.8 1.7-14.9v-4.9c-.1-.5-.5-1-1-1zM48.4 54.4H21.5c-.3 0-.6-.2-.6-.6V43.5c0-.3.3-.6.6-.6h20.7c.5 0 .9-.4.9-.9V30.1c0-.5-.4-.9-.9-.9H21.5c-.3 0-.6-.2-.6-.6v-9.8c0-.3.2-.6.6-.6h24.1c.4 0 .7-.4.6-.8L42.1 5c-.2-.5-.6-.8-1.1-.8H5.6c-.5 0-.9.4-.9.9v62.4c0 .5.4.9.9.9h38.2c.5 0 1-.3 1.1-.8l4-12.5c.2-.3-.1-.7-.5-.7z"/></g><g id="Vermassung" class="st2"><path class="st4" d="M120.8-70.9v79M192.9-70.9v79M200.3-70.9v79M248.2-71.2V8.1M255.7-71.2V8.1M263.1-71.2V8.1M270.5-71.2V8.1M277.9-71.2V8.1M110.7-70.9v79M118.1-70.9v79"/></g></svg>