<svg width="147" height="40" viewBox="0 0 147 40" fill="none" xmlns="http://www.w3.org/2000/svg">
<path d="M60.2419 1.8322H59.1606C59.1349 1.72898 59.1092 1.62575 59.0834 1.52253C59.0319 1.44511 58.9804 1.36769 58.9032 1.29027C58.826 1.23866 58.7487 1.18704 58.6458 1.13543C58.5428 1.10962 58.4398 1.08382 58.3111 1.08382C58.1051 1.08382 57.8992 1.13543 57.7447 1.23866C57.5902 1.34188 57.4615 1.49672 57.3843 1.70317C57.3071 1.90962 57.2556 2.14188 57.2556 2.42575C57.2556 2.70962 57.3071 2.96769 57.3843 3.17414C57.4615 3.38059 57.5902 3.53543 57.7447 3.61285C57.8992 3.69027 58.0794 3.76769 58.2853 3.76769C58.4141 3.76769 58.517 3.74188 58.62 3.71608C58.723 3.69027 58.8002 3.63866 58.8775 3.58704C58.9547 3.53543 59.0062 3.45801 59.0577 3.38059C59.1092 3.30317 59.1349 3.19995 59.1606 3.09672H60.2419C60.2162 3.30317 60.1647 3.48382 60.0617 3.69027C59.9587 3.87091 59.83 4.05156 59.6755 4.2064C59.5211 4.36124 59.3151 4.49027 59.0834 4.56769C58.8517 4.67091 58.5685 4.69672 58.2853 4.69672C57.8734 4.69672 57.513 4.6193 57.2041 4.43866C56.8952 4.25801 56.6377 3.99995 56.4575 3.66446C56.2773 3.32898 56.1743 2.91608 56.1743 2.42575C56.1743 1.93543 56.2773 1.52253 56.4575 1.18704C56.6377 0.851559 56.8952 0.593495 57.2041 0.41285C57.513 0.232205 57.8734 0.154785 58.2596 0.154785C58.517 0.154785 58.7745 0.180592 59.0062 0.258011C59.2379 0.335431 59.4438 0.438656 59.5983 0.593495C59.7785 0.748334 59.9072 0.903172 60.0102 1.10962C60.1389 1.31608 60.2162 1.57414 60.2419 1.8322Z" fill="#231F20"/>
<path d="M61.8896 1.08384V0.206421H65.6226V1.08384H64.2839V4.64513H63.2284V1.08384H61.8896Z" fill="#231F20"/>
<path d="M67.8622 4.67089H66.7037L68.1969 0.232178H69.6128L71.106 4.67089H69.9475L68.9177 1.34185H68.892L67.8622 4.67089ZM67.7078 2.91605H70.102V3.74185H67.7078V2.91605Z" fill="#231F20"/>
<path d="M72.8568 4.67094V0.206421H73.9381V1.98707H75.6887V0.206421H76.7699V4.64513H75.6887V2.86449H73.9381V4.64513H72.8568V4.67094Z" fill="#231F20"/>
<path d="M78.4689 5.729V3.81932H78.7778C78.8808 3.7419 78.9838 3.66449 79.061 3.53545C79.1382 3.40642 79.2155 3.22578 79.2669 2.99352C79.3184 2.76126 79.3699 2.47739 79.3957 2.09029L79.5244 0.206421H82.5622V3.81932H83.0256V5.729H81.9958V4.67094H79.4729V5.729H78.4689ZM80.0135 3.81932H81.5582V1.08384H80.5284L80.4512 2.09029C80.4254 2.37416 80.3997 2.63223 80.3482 2.83868C80.2967 3.04513 80.2452 3.25158 80.1937 3.40642C80.1423 3.56126 80.0908 3.7161 80.0135 3.81932Z" fill="#231F20"/>
<path d="M85.8575 4.67089H84.699L86.1921 0.232178H87.6081L89.1013 4.67089H87.9428L86.913 1.34185H86.8872L85.8575 4.67089ZM85.703 2.91605H88.0972V3.74185H85.703V2.91605Z" fill="#231F20"/>
<path d="M90.8521 4.67094V0.206421H92.6799C93.0146 0.206421 93.2978 0.28384 93.5295 0.412872C93.7612 0.541905 93.9671 0.72255 94.0958 0.954808C94.2246 1.18707 94.3018 1.44513 94.3018 1.75481C94.3018 2.06449 94.2246 2.32255 94.0958 2.55481C93.9671 2.78707 93.7612 2.96771 93.5295 3.09674C93.2978 3.22578 92.9888 3.27739 92.6542 3.27739H91.5214V2.42578H92.4482C92.6027 2.42578 92.7571 2.39997 92.8601 2.34836C92.9631 2.29674 93.0403 2.21932 93.1176 2.1161C93.1948 2.01287 93.1948 1.88384 93.1948 1.75481C93.1948 1.62578 93.169 1.49674 93.1176 1.39352C93.0661 1.29029 92.9888 1.21287 92.8601 1.16126C92.7314 1.10965 92.6284 1.08384 92.4482 1.08384H91.9076V4.67094H90.8521Z" fill="#231F20"/>
<path d="M95.9493 1.08384V0.206421H99.6823V1.08384H98.3436V4.64513H97.288V1.08384H95.9493Z" fill="#231F20"/>
<path d="M106.685 4.67094L105.295 2.83868H105.037V4.67094H103.956V0.206421H105.037V1.93545H105.217L106.582 0.206421H107.921L106.221 2.29674L108.024 4.64513H106.685V4.67094Z" fill="#231F20"/>
<path d="M110.778 4.67089H109.62L111.113 0.232178H112.529L114.022 4.67089H112.863L111.834 1.34185H111.808L110.778 4.67089ZM110.624 2.91605H113.018V3.74185H110.624V2.91605Z" fill="#231F20"/>
<path d="M115.438 0.206421H116.468V1.62578C116.468 1.78061 116.493 1.90965 116.545 2.01287C116.596 2.1161 116.674 2.16771 116.802 2.21932C116.931 2.27094 117.085 2.29674 117.266 2.29674C117.317 2.29674 117.394 2.29674 117.472 2.29674C117.549 2.29674 117.652 2.29674 117.755 2.27094C117.858 2.27094 117.935 2.24513 118.038 2.24513C118.115 2.24513 118.192 2.21932 118.244 2.19352V3.01932C118.192 3.04513 118.115 3.04513 118.038 3.07094C117.961 3.09674 117.858 3.09674 117.755 3.09674C117.652 3.09674 117.575 3.12255 117.472 3.12255C117.394 3.12255 117.317 3.12255 117.266 3.12255C116.905 3.12255 116.571 3.07094 116.287 2.96771C116.004 2.86449 115.798 2.70965 115.644 2.47739C115.489 2.24513 115.412 1.98707 115.412 1.62578V0.206421H115.438ZM118.064 0.206421H119.119V4.64513H118.064V0.206421Z" fill="#231F20"/>
<path d="M121.204 4.67094V0.206421H124.294V1.08384H122.286V1.98707H124.139V2.86449H122.286V3.76771H124.294V4.64513H121.204V4.67094Z" fill="#231F20"/>
<path d="M130.164 1.8322H129.082C129.057 1.72898 129.031 1.62575 129.005 1.52253C128.954 1.44511 128.902 1.36769 128.825 1.29027C128.748 1.23866 128.671 1.18704 128.568 1.13543C128.465 1.10962 128.362 1.08382 128.233 1.08382C128.027 1.08382 127.821 1.13543 127.666 1.23866C127.512 1.34188 127.383 1.49672 127.306 1.70317C127.229 1.90962 127.177 2.14188 127.177 2.42575C127.177 2.70962 127.229 2.96769 127.306 3.17414C127.383 3.38059 127.512 3.53543 127.666 3.61285C127.821 3.71608 128.001 3.76769 128.207 3.76769C128.336 3.76769 128.439 3.74188 128.542 3.71608C128.645 3.69027 128.722 3.63866 128.799 3.58704C128.876 3.53543 128.928 3.45801 128.979 3.38059C129.031 3.30317 129.057 3.19995 129.082 3.09672H130.164C130.138 3.30317 130.086 3.48382 129.983 3.69027C129.88 3.87091 129.752 4.05156 129.597 4.2064C129.443 4.36124 129.237 4.49027 129.005 4.56769C128.773 4.64511 128.49 4.69672 128.207 4.69672C127.795 4.69672 127.435 4.6193 127.126 4.43866C126.817 4.25801 126.559 3.99995 126.379 3.66446C126.199 3.32898 126.096 2.91608 126.096 2.42575C126.096 1.93543 126.199 1.52253 126.379 1.18704C126.559 0.851559 126.817 0.593495 127.126 0.41285C127.435 0.232205 127.795 0.154785 128.181 0.154785C128.439 0.154785 128.696 0.180592 128.928 0.258011C129.16 0.335431 129.366 0.438656 129.52 0.593495C129.7 0.748334 129.829 0.903172 129.932 1.10962C130.061 1.31608 130.138 1.57414 130.164 1.8322Z" fill="#231F20"/>
<path d="M131.811 1.08384V0.206421H135.544V1.08384H134.205V4.64513H133.15V1.08384H131.811Z" fill="#231F20"/>
<path d="M137.321 4.67094V0.206421H139.174C139.509 0.206421 139.792 0.258034 139.998 0.335453C140.204 0.412873 140.384 0.567711 140.513 0.72255C140.616 0.903195 140.693 1.08384 140.693 1.3161C140.693 1.49674 140.667 1.62578 140.59 1.78062C140.513 1.90965 140.41 2.01287 140.307 2.1161C140.178 2.19352 140.049 2.27094 139.869 2.29674V2.34836C140.049 2.34836 140.204 2.39997 140.358 2.5032C140.513 2.58062 140.642 2.70965 140.719 2.86449C140.822 3.01932 140.848 3.19997 140.848 3.43223C140.848 3.66449 140.796 3.87094 140.667 4.07739C140.539 4.25803 140.358 4.41287 140.152 4.5161C139.921 4.61932 139.638 4.67094 139.329 4.67094H137.321ZM138.376 2.03868H138.968C139.097 2.03868 139.2 2.01287 139.277 1.98707C139.38 1.93545 139.432 1.88384 139.483 1.80642C139.535 1.729 139.56 1.65158 139.56 1.54836C139.56 1.39352 139.509 1.29029 139.406 1.18707C139.303 1.10965 139.148 1.05803 138.968 1.05803H138.35V2.03868H138.376ZM138.376 3.79352H139.045C139.277 3.79352 139.457 3.74191 139.56 3.66449C139.663 3.58707 139.715 3.45803 139.715 3.3032C139.715 3.19997 139.689 3.09674 139.638 3.01932C139.586 2.94191 139.509 2.86449 139.406 2.83868C139.303 2.78707 139.2 2.76126 139.045 2.76126H138.376V3.79352Z" fill="#231F20"/>
<path d="M143.499 4.67089H142.34L143.834 0.232178H145.25L146.743 4.67089H145.584L144.554 1.34185H144.529L143.499 4.67089ZM143.344 2.91605H145.739V3.74185H143.344V2.91605Z" fill="#231F20"/>
<path d="M7.77498 39.6387C10.4009 39.6387 12.7179 39.2 14.6487 38.3484C16.6053 37.4968 18.2529 36.3097 19.5916 34.8387C20.7759 33.5226 21.7027 32.0258 22.372 30.3484C23.0414 28.6451 23.376 26.8387 23.376 24.9032C23.376 22.7355 22.9641 20.7484 22.1146 18.8903C21.265 17.0322 20.1065 15.4322 18.6391 14.0387C17.3261 12.8258 15.7815 11.871 14.0051 11.1742C12.203 10.4774 10.1435 10.1677 7.74923 10.1677H0.231897V17.9871H7.77498C9.11368 17.9871 10.2207 18.1677 11.0703 18.5032C11.9456 18.8387 12.6921 19.3032 13.3358 19.8968C14.0051 20.5419 14.5457 21.2903 14.9062 22.1677C15.2923 23.0451 15.4983 23.9742 15.4983 24.9548C15.4983 25.858 15.3438 26.7097 15.0091 27.5097C14.6745 28.3097 14.2368 29.0064 13.6704 29.6258C13.0268 30.3226 12.2545 30.8903 11.2762 31.3548C10.3237 31.7935 9.13943 32.0258 7.74923 32.0258H0.154663V39.6387H7.77498Z" fill="#006072"/>
<path d="M11.7911 22.0645H0.18042V27.7419H11.7911V22.0645Z" fill="#FF6C0E"/>
<path d="M27.5721 39.6644C25.7186 39.6644 24.1224 39.4322 22.8094 38.9935L23.3501 32.8515C23.8392 32.9547 24.4571 33.0064 25.2037 33.0064C25.7443 33.0064 26.2077 32.9289 26.5681 32.7483C26.9285 32.5934 27.3147 32.1547 27.7524 31.458C28.19 30.7612 28.5247 29.7547 28.7564 28.4902C29.0138 27.1999 29.2198 25.3934 29.3742 22.9934C29.5287 20.6193 29.6317 17.7289 29.6317 14.3483V10.3999H51.7718V39.2773H43.7911V17.4193H37.0718V18.5289C37.0718 21.9612 36.9173 24.9547 36.6084 27.4838C36.2995 30.0128 35.8876 32.0515 35.3469 33.5999C34.8063 35.1483 34.1369 36.387 33.3131 37.316C32.4893 38.2451 31.6397 38.8644 30.7387 39.1999C29.8376 39.5096 28.7821 39.6644 27.5721 39.6644Z" fill="#006072"/>
<path d="M56.1484 39.2515V10.3999H64.1292V22.116L74.0407 10.3999H83.5146L72.5991 22.8128L83.8751 39.2773H74.2982L67.064 28.5418L64.1549 31.7934V39.2515H56.1484Z" fill="#006072"/>
<path d="M108.77 35.458C105.784 38.3741 102.102 39.8193 97.6741 39.8193C93.2461 39.8193 89.5647 38.3741 86.6298 35.458C83.6692 32.5677 82.2018 29.0064 82.2018 24.7999C82.2018 20.6193 83.695 17.0838 86.6556 14.1677C89.6161 11.2516 93.3491 9.8064 97.7771 9.8064C102.205 9.8064 105.887 11.2516 108.821 14.1677C111.782 17.058 113.249 20.6193 113.249 24.8258C113.249 29.0064 111.756 32.5419 108.77 35.458ZM97.7771 32.6193C99.9396 32.6193 101.716 31.8709 103.055 30.3483C104.419 28.8258 105.088 26.9935 105.088 24.8258C105.088 22.6838 104.393 20.8516 102.977 19.329C101.587 17.8064 99.8109 17.0322 97.6741 17.0322C95.5373 17.0322 93.7867 17.7806 92.4223 19.3032C91.0578 20.8258 90.3885 22.658 90.3885 24.8258C90.3885 26.9677 91.0836 28.7999 92.4738 30.3225C93.864 31.8709 95.6403 32.6193 97.7771 32.6193Z" fill="#006072"/>
<path d="M116.261 39.2515V10.3999H124.705L131.579 21.5741L138.453 10.3999H146.897V39.2773H138.968V22.7096L131.553 33.987H131.399L124.088 22.7612V39.2515H116.261Z" fill="#006072"/>
</svg>
